<?xml version="1.0" encoding="UTF-8" standalone="no"?>
<svg
   xmlns:dc="http://purl.org/dc/elements/1.1/"
   xmlns:cc="http://creativecommons.org/ns#"
   xmlns:rdf="http://www.w3.org/1999/02/22-rdf-syntax-ns#"
   xmlns:svg="http://www.w3.org/2000/svg"
   xmlns="http://www.w3.org/2000/svg"
   xmlns:sodipodi="http://sodipodi.sourceforge.net/DTD/sodipodi-0.dtd"
   xmlns:inkscape="http://www.inkscape.org/namespaces/inkscape"
   version="1.1"
   id="svg24"
   width="577.73419"
   height="178.35175"
   viewBox="0 0 577.73419 178.35175"
   sodipodi:docname="JRNLicon.svg"
   inkscape:version="1.0.2-2 (e86c870879, 2021-01-15)">
  <metadata
     id="metadata30">
    <rdf:RDF>
      <cc:Work
         rdf:about="">
        <dc:format>image/svg+xml</dc:format>
        <dc:type
           rdf:resource="http://purl.org/dc/dcmitype/StillImage" />
        <dc:title />
      </cc:Work>
    </rdf:RDF>
  </metadata>
  <defs
     id="defs28" />
  <sodipodi:namedview
     pagecolor="#ffffff"
     bordercolor="#666666"
     borderopacity="1"
     objecttolerance="10"
     gridtolerance="10"
     guidetolerance="10"
     inkscape:pageopacity="0"
     inkscape:pageshadow="2"
     inkscape:window-width="2560"
     inkscape:window-height="1361"
     id="namedview26"
     showgrid="false"
     inkscape:zoom="3.7397415"
     inkscape:cx="388.53809"
     inkscape:cy="86.394204"
     inkscape:window-x="1911"
     inkscape:window-y="-9"
     inkscape:window-maximized="1"
     inkscape:current-layer="layer2"
     inkscape:document-rotation="0" />
  <g
     inkscape:groupmode="layer"
     id="layer1"
     inkscape:label="Image 1"
     transform="translate(-729.33789,-146.81428)">
    <path
       id="path2901"
       style="fill:#344fa1;fill-opacity:1;stroke-width:1.33333"
       d="m 801.00391,154.5 v 64.66602 64.66796 h 15.33398 15.33203 V 255.6582 227.48438 l 4.83203,0.7832 c 8.7062,1.41283 12.18436,6.40161 25.04297,35.91211 l 8.27344,18.98633 16.25976,0.375 c 8.94255,0.2059 16.25977,-0.14009 16.25977,-0.76954 0,-1.89939 -10.51928,-25.55894 -16.35547,-36.7871 -3.03702,-5.84293 -8.24235,-13.22449 -11.71484,-16.61329 l -6.25,-6.09961 6.82617,-4.71875 c 9.18981,-6.35364 14.16304,-15.94224 14.15234,-27.29101 -0.0114,-12.43596 -2.07038,-17.9313 -9.37109,-25.01367 C 869.30135,156.23311 861.71755,154.5 828.19727,154.5 Z m 34.90429,18.68945 c 1.42305,-0.0833 3.3242,0.20909 5.86328,0.58985 3.80272,0.57024 7.60536,2.28465 10.1875,4.59179 3.42584,3.06098 4.21817,4.89814 4.69922,10.9043 0.73045,9.11981 -1.08503,13.84341 -6.62109,17.21875 -2.8958,1.76557 -6.72496,2.66497 -11.36719,2.66797 l -7,0.004 v -17.375 c 0,-14.72584 -0.0309,-18.35149 4.23828,-18.60157 z" />
    <path
       style="fill:#344fa1;fill-opacity:1;stroke-width:1.33333"
       d="m 1042.3379,154.5 v 64.66602 64.66796 h 38.666 81.4497 V 272.5 261.16602 h -66.1157 -23.334 V 207.83398 154.5 h -15.334 z"
       id="path2899"
       sodipodi:nodetypes="ccccccccccccc" />
    <path
       style="fill:#344fa1;fill-opacity:1;stroke-width:1.33333"
       d="m 749.11914,154.5 -0.39062,66.43164 -0.39063,66.43359 -3.56055,5.37696 c -1.95791,2.95756 -6.23304,7.06793 -9.5,9.13476 l -5.93945,3.75782 6.02539,9.76562 c 3.31461,5.371 6.61689,9.76563 7.33789,9.76563 0.721,0 4.68404,-1.92204 8.80664,-4.27149 11.05999,-6.30305 20.49183,-16.32042 24.26172,-25.76953 3.17137,-7.94896 3.17533,-8.03871 3.62695,-74.29102 L 779.84766,154.5 h -15.36328 z"
       id="path2895" />
    <path
       style="fill:#344fa1;fill-opacity:1;stroke-width:1.33333"
       d="m 913.00391,154.4043 v 64.71484 64.71484 h 15.53711 15.53515 l -0.74805,-40.22851 -0.75,-40.22656 2.78516,4.56054 c 1.53098,2.50841 13.2583,20.60991 26.0625,40.22657 l 23.28125,35.66796 h 13.14847 13.1484 V 219.16602 154.5 h -15.5449 -15.54494 l 0.81055,40.32812 0.81055,40.32618 -5.59961,-9.10742 c -3.07957,-5.0092 -14.89896,-23.0065 -26.26563,-39.99415 l -20.66601,-30.88671 -13,-0.38086 z"
       id="path2893" />
  </g>
  <g
     inkscape:groupmode="layer"
     id="layer2"
     inkscape:label="Image 2"
     transform="translate(-729.33789,-146.81428)">
    <path
       style="fill:#344fa1;fill-opacity:1;stroke-width:0.847327"
       d="m 1185.3669,233.92248 c -1.5201,0 -17.3477,17.75334 -21.9146,24.5808 -7.7745,11.62325 -10.8571,22.29423 -7.0761,24.49642 2.2156,1.29043 8.6308,1.08964 13.8271,-0.43317 9.5379,-2.79516 37.6482,-19.47745 37.6482,-22.34294 0,-1.05026 -21.5867,-26.30111 -22.4846,-26.30111 z"
       id="path2920" />
    <path
       id="path2918"
       style="fill:#3d84b8;fill-opacity:1;stroke-width:0.847327"
       d="M 528.86914 23.746094 C 527.92734 24.096074 462.83789 80.44081 462.83789 80.90625 C 462.83789 81.12399 467.88955 87.178048 474.06445 94.361328 C 480.23935 101.54462 485.54231 107.42788 485.84961 107.43359 C 486.56383 107.44773 527.83175 71.747857 544.5918 56.822266 C 550.56418 61.242307 536.82812 72.097656 536.82812 72.097656 L 514.17969 91.958984 L 517.55859 95.900391 C 517.55859 95.900391 521.8377 91.790008 539.1543 76.205078 C 553.33591 63.441614 555.88702 61.583971 549.12305 52.773438 C 550.89038 51.16527 551.90502 50.199986 551.90234 50.103516 C 551.87134 48.990326 529.58004 23.481964 528.86914 23.746094 z M 535.39062 50.882812 C 536.77463 50.845012 537.53307 51.893174 536.91797 53.496094 C 536.62027 54.272074 526.44449 63.485966 514.30469 73.972656 C 502.16489 84.459336 491.52767 93.039062 490.66797 93.039062 C 489.07307 93.039062 488.57651 90.915149 489.75391 89.130859 C 490.89201 87.406409 531.86132 52.240114 533.82422 51.302734 C 534.39692 51.029254 534.92923 50.895402 535.39062 50.882812 z "
       transform="translate(729.33789,146.81428)" />
    <path
       style="fill:#3f3697;fill-opacity:1;stroke-width:0.847327"
       d="m 1276.1748,146.8147 c -1.6962,-0.0253 -3.7226,1.08274 -4.5191,2.83119 -0.8231,1.80615 -0.6687,2.411 1.0884,4.28465 l 2.0468,2.18203 -2.0791,1.68555 c -1.1434,0.92743 -3.3509,2.80335 -4.9052,4.16797 l -2.8263,2.48117 11.6649,13.49315 11.6637,13.49313 4.3912,-3.75217 c 2.4152,-2.06333 4.6865,-3.75092 5.0481,-3.75092 0.3617,0 1.5613,0.8485 2.6648,1.8854 1.8679,1.75453 2.1648,1.79641 4.2909,0.60695 4.4268,-2.47662 3.6926,-3.85407 -11.3384,-21.26929 -7.7793,-9.01326 -14.6317,-16.91389 -15.2284,-17.55684 -0.4881,-0.52604 -1.1913,-0.77049 -1.9623,-0.78197 z"
       id="path2903" />
  </g>
</svg>
