<?xml version="1.0" encoding="UTF-8" standalone="no"?>
<svg
   xmlns:dc="http://purl.org/dc/elements/1.1/"
   xmlns:cc="http://creativecommons.org/ns#"
   xmlns:rdf="http://www.w3.org/1999/02/22-rdf-syntax-ns#"
   xmlns:svg="http://www.w3.org/2000/svg"
   xmlns="http://www.w3.org/2000/svg"
   xmlns:xlink="http://www.w3.org/1999/xlink"
   xmlns:sodipodi="http://sodipodi.sourceforge.net/DTD/sodipodi-0.dtd"
   xmlns:inkscape="http://www.inkscape.org/namespaces/inkscape"
   width="113.62617mm"
   height="113.62429mm"
   viewBox="0 0 113.62616 113.62429"
   version="1.1"
   id="svg2956"
   inkscape:version="1.0.2-2 (e86c870879, 2021-01-15)"
   sodipodi:docname="JRNLfavicon.svg">
  <defs
     id="defs2950">
    <inkscape:path-effect
       effect="fillet_chamfer"
       id="path-effect1554"
       is_visible="true"
       lpeversion="1"
       satellites_param="F,0,0,1,0,13.229167,0,1 @ F,0,0,1,0,13.229167,0,1 @ F,0,0,1,0,13.229167,0,1 @ F,0,0,1,0,13.229167,0,1"
       unit="px"
       method="auto"
       mode="F"
       radius="50"
       chamfer_steps="1"
       flexible="false"
       use_knot_distance="true"
       apply_no_radius="true"
       apply_with_radius="true"
       only_selected="false"
       hide_knots="false" />
    <linearGradient
       inkscape:collect="always"
       id="linearGradient1548">
      <stop
         style="stop-color:#4733ff;stop-opacity:1"
         offset="0"
         id="stop1544" />
      <stop
         style="stop-color:#3365ff;stop-opacity:1"
         offset="0.5"
         id="stop1552" />
      <stop
         style="stop-color:#33a7ff;stop-opacity:1"
         offset="1"
         id="stop1546" />
    </linearGradient>
    <linearGradient
       inkscape:collect="always"
       xlink:href="#linearGradient1548"
       id="linearGradient1550"
       x1="93.839165"
       y1="145.45699"
       x2="93.839165"
       y2="31.686157"
       gradientUnits="userSpaceOnUse" />
  </defs>
  <sodipodi:namedview
     id="base"
     pagecolor="#ffffff"
     bordercolor="#666666"
     borderopacity="1.0"
     inkscape:pageopacity="0.0"
     inkscape:pageshadow="2"
     inkscape:zoom="0.7"
     inkscape:cx="512.15675"
     inkscape:cy="379.10755"
     inkscape:document-units="mm"
     inkscape:current-layer="layer5"
     inkscape:document-rotation="0"
     showgrid="false"
     inkscape:window-width="1431"
     inkscape:window-height="1080"
     inkscape:window-x="2314"
     inkscape:window-y="183"
     inkscape:window-maximized="0" />
  <metadata
     id="metadata2953">
    <rdf:RDF>
      <cc:Work
         rdf:about="">
        <dc:format>image/svg+xml</dc:format>
        <dc:type
           rdf:resource="http://purl.org/dc/dcmitype/StillImage" />
        <dc:title />
      </cc:Work>
    </rdf:RDF>
  </metadata>
  <g
     inkscape:groupmode="layer"
     id="layer5"
     inkscape:label="Layer 2">
    <path
       style="fill:url(#linearGradient1550);fill-opacity:1;stroke-width:16.106"
       id="rect885"
       width="113.62617"
       height="113.62429"
       x="38.843624"
       y="31.780651"
       sodipodi:type="rect"
       d="m 52.072791,31.780651 87.167829,0 a 13.229167,13.229167 45 0 1 13.22917,13.229167 v 87.165952 a 13.229167,13.229167 135 0 1 -13.22917,13.22917 H 52.072791 A 13.229167,13.229167 45 0 1 38.843624,132.17577 V 45.009818 A 13.229167,13.229167 135 0 1 52.072791,31.780651 Z"
       transform="translate(-38.843625,-31.780652)"
       inkscape:path-effect="#path-effect1554" />
  </g>
  <g
     inkscape:label="Layer 1"
     inkscape:groupmode="layer"
     id="layer1"
     transform="translate(-38.843623,-31.78065)">
    <path
       style="fill:#f9f6e7;fill-opacity:1;stroke-width:0.499199"
       d="m 69.351481,99.363936 c -0.894518,0 -10.208504,10.471384 -12.895975,14.498394 -4.575012,6.8557 -6.389028,13.14971 -4.164041,14.44861 1.303803,0.76114 5.078933,0.6427 8.136764,-0.25549 5.612722,-1.64865 22.154656,-11.48832 22.154656,-13.17844 0,-0.61948 -12.70302,-15.513074 -13.231404,-15.513074 z"
       id="path2920" />
    <path
       id="path2918"
       style="fill:#f9f6e7;fill-opacity:1;stroke-width:0.499199"
       d="m 112.21578,61.990827 c -0.55423,0.206431 -38.857364,33.440642 -38.857364,33.715154 0,0.128406 2.972602,3.699474 6.606324,7.936369 3.633726,4.23689 6.754846,7.70664 6.935685,7.71002 0.417471,0.009 24.584325,-20.940379 34.575295,-29.850135 3.50329,2.609157 -4.57637,9.008441 -4.57637,9.008441 l -13.32841,11.714354 1.98796,2.32473 c 0,0 2.51823,-2.42389 12.70843,-11.616296 8.34771,-7.530297 9.85305,-8.620922 5.86853,-13.821332 1.03946,-0.948055 1.63492,-1.517315 1.63334,-1.574199 -0.0178,-0.656585 -13.13508,-15.702882 -13.55342,-15.547106 z m 3.83654,16.006332 c 0.81442,-0.02229 1.26116,0.596058 0.89921,1.541514 -0.17526,0.45769 -6.16337,5.892676 -13.30722,12.077985 -7.143847,6.185325 -13.403373,11.245732 -13.909284,11.245732 -0.938532,0 -1.230922,-1.25269 -0.538059,-2.30512 0.669719,-1.017124 24.779433,-21.759214 25.934533,-22.312111 0.33702,-0.161176 0.6493,-0.240576 0.92082,-0.248 z" />
    <path
       style="fill:#f9f6e7;fill-opacity:1;stroke-width:0.499199"
       d="m 122.78875,47.985507 c -0.99816,-0.01561 -2.19063,0.63864 -2.65934,1.66992 -0.48437,1.06532 -0.39352,1.422069 0.64048,2.527182 l 1.20447,1.287021 -1.22349,0.994184 c -0.67283,0.547016 -1.97188,1.65349 -2.88653,2.458388 l -1.66318,1.463444 6.8644,7.958623 6.86368,7.958585 2.58408,-2.213121 c 1.42125,-1.217003 2.7578,-2.212394 2.97061,-2.212394 0.21284,0 0.91877,0.50047 1.56813,1.112072 1.09922,1.034867 1.27391,1.059566 2.52505,0.357999 2.60502,-1.460797 2.17296,-2.273247 -6.67225,-12.545183 -4.57784,-5.316257 -8.61025,-9.976266 -8.96137,-10.355485 -0.28724,-0.310269 -0.70105,-0.454457 -1.15474,-0.461235 z"
       id="path2903" />
  </g>
</svg>
